<?xml version="1.0" encoding="UTF-8"?>
<svg width="115px" height="128px" viewBox="0 0 115 128" version="1.1" xmlns="http://www.w3.org/2000/svg" xmlns:xlink="http://www.w3.org/1999/xlink">
    <!-- Generator: Sketch 53.2 (72643) - https://sketchapp.com -->
    <title>icon3</title>
    <desc>Created with Sketch.</desc>
    <g id="Drop-Downs" stroke="none" stroke-width="1" fill="none" fill-rule="evenodd">
        <g id="LandingPage_1279_C" transform="translate(-964.000000, -6214.000000)">
            <g id="icon3" transform="translate(966.000000, 6216.000000)">
                <path d="M110.6354,60.4639 C110.6354,95.2769 89.8684,123.4999 59.3174,123.4999 C35.7184,123.4999 14.0004,95.2769 14.0004,60.4639 C14.0004,25.6499 35.7184,-0.0001 59.3174,-0.0001 C89.8684,-0.0001 110.6354,25.6499 110.6354,60.4639" id="Fill-1" fill="#EBECE8"></path>
                <path d="M110.6354,60.4639 C110.6354,95.2769 85.8684,123.4999 55.3174,123.4999 C24.7664,123.4999 0.0004,95.2769 0.0004,60.4639 C0.0004,25.6499 24.7664,-0.0001 55.3174,-0.0001 C85.8684,-0.0001 110.6354,25.6499 110.6354,60.4639 Z" id="Stroke-3" stroke="#313B44" stroke-width="4" stroke-linejoin="round"></path>
                <path d="M73.3282,100.3437 C73.3282,108.8697 63.8432,115.7817 55.3172,115.7817 C46.7912,115.7817 37.3072,108.8697 37.3072,100.3437 C37.3072,91.8177 46.7912,84.9057 55.3172,84.9057 C63.8432,84.9057 73.3282,91.8177 73.3282,100.3437" id="Fill-5" fill="#FFFFFF"></path>
                <path d="M73.3282,100.3437 C73.3282,108.8697 63.8432,115.7817 55.3172,115.7817 C46.7912,115.7817 37.3072,108.8697 37.3072,100.3437 C37.3072,91.8177 46.7912,84.9057 55.3172,84.9057 C63.8432,84.9057 73.3282,91.8177 73.3282,100.3437 Z" id="Stroke-7" stroke="#313B44" stroke-width="4"></path>
                <path d="M38.7345,96.2881 L73.1305,96.2881" id="Stroke-9" stroke="#313B44" stroke-width="4" stroke-linejoin="round"></path>
                <path d="M47.8136,59.499 C47.8136,69.978 39.3176,78.474 28.8376,78.474 C18.3586,78.474 9.8626,69.978 9.8626,59.499 C9.8626,49.019 18.3586,40.523 28.8376,40.523 C39.3176,40.523 47.8136,49.019 47.8136,59.499" id="Fill-11" fill="#FFFFFF"></path>
                <path d="M47.8136,59.499 C47.8136,69.978 39.3176,78.474 28.8376,78.474 C18.3586,78.474 9.8626,69.978 9.8626,59.499 C9.8626,49.019 18.3586,40.523 28.8376,40.523 C39.3176,40.523 47.8136,49.019 47.8136,59.499 Z" id="Stroke-13" stroke="#313B44" stroke-width="4"></path>
                <path d="M12.6105,52.0635 L36.0075,59.4995 L35.9655,59.5025 C36.0035,59.8475 36.0165,60.1985 36.0035,60.5545 C35.8565,64.4815 32.5545,67.5465 28.6275,67.4005 C24.7005,67.2535 21.6345,63.9515 21.7815,60.0245 L21.7815,56.3355" id="Stroke-15" stroke="#313B44" stroke-width="4" stroke-linejoin="round"></path>
                <path d="M62.8219,59.499 C62.8219,69.978 71.3179,78.474 81.7979,78.474 C92.2769,78.474 100.7729,69.978 100.7729,59.499 C100.7729,49.019 92.2769,40.523 81.7979,40.523 C71.3179,40.523 62.8219,49.019 62.8219,59.499" id="Fill-17" fill="#FFFFFF"></path>
                <path d="M62.8219,59.499 C62.8219,69.978 71.3179,78.474 81.7979,78.474 C92.2769,78.474 100.7729,69.978 100.7729,59.499 C100.7729,49.019 92.2769,40.523 81.7979,40.523 C71.3179,40.523 62.8219,49.019 62.8219,59.499 Z" id="Stroke-19" stroke="#313B44" stroke-width="4"></path>
                <path d="M98.025,52.0635 L74.628,59.4995 L74.67,59.5025 C74.632,59.8475 74.619,60.1985 74.632,60.5545 C74.779,64.4815 78.081,67.5465 82.008,67.4005 C85.935,67.2535 89,63.9515 88.854,60.0245 L88.854,56.3355" id="Stroke-21" stroke="#313B44" stroke-width="4" stroke-linejoin="round"></path>
            </g>
        </g>
    </g>
</svg>