<?xml version="1.0" encoding="UTF-8"?>
<svg width="114px" height="127px" viewBox="0 0 114 127" version="1.1" xmlns="http://www.w3.org/2000/svg" xmlns:xlink="http://www.w3.org/1999/xlink">
    <!-- Generator: Sketch 53.2 (72643) - https://sketchapp.com -->
    <title>icon9</title>
    <desc>Created with Sketch.</desc>
    <g id="Drop-Downs" stroke="none" stroke-width="1" fill="none" fill-rule="evenodd">
        <g id="LandingPage_1279_C" transform="translate(-381.000000, -14988.000000)">
            <g id="icon9" transform="translate(382.000000, 14988.000000)">
                <path d="M60.9271,24.9758 C52.2091,27.2038 45.7541,35.0868 45.7541,44.4978 L45.7541,79.8678 C45.7541,89.2798 52.2091,97.1628 60.9271,99.3898 C69.6451,97.1628 76.1001,89.2798 76.1001,79.8678 L76.1001,44.4978 C76.1001,35.0868 69.6451,27.2038 60.9271,24.9758" id="Fill-1" fill="#EBECE8"></path>
                <path d="M76.0999,79.8674 C76.0999,91.0094 67.0689,100.0404 55.9269,100.0404 C44.7859,100.0404 35.7539,91.0094 35.7539,79.8674 L35.7539,44.4994 C35.7539,33.3574 44.7859,24.3254 55.9269,24.3254 C67.0689,24.3254 76.0999,33.3574 76.0999,44.4994 L76.0999,79.8674 Z" id="Stroke-3" stroke="#313B44" stroke-width="4" stroke-linejoin="round"></path>
                <path d="M35.7537,47.3811 L76.0997,47.3811" id="Stroke-5" stroke="#313B44" stroke-width="4" stroke-linejoin="round"></path>
                <path d="M42.6258,29.5667 C42.1698,21.4347 38.1238,13.5857 30.9338,8.5517 C28.4588,6.8197 25.7988,5.5517 23.0558,4.7297" id="Stroke-7" stroke="#313B44" stroke-width="4" stroke-linejoin="round"></path>
                <path d="M69.2278,29.5667 C69.6838,21.4347 73.7308,13.5857 80.9198,8.5517 C83.3948,6.8197 86.0548,5.5517 88.7978,4.7297" id="Stroke-9" stroke="#313B44" stroke-width="4" stroke-linejoin="round"></path>
                <path d="M35.7537,48.4036 C16.8137,40.5006 3.5027,21.8046 3.5027,0.0006" id="Stroke-11" stroke="#313B44" stroke-width="4" stroke-linejoin="round"></path>
                <path d="M108.3519,0.0002 C108.3519,21.7152 95.1499,40.3472 76.3329,48.3052" id="Stroke-13" stroke="#313B44" stroke-width="4" stroke-linejoin="round"></path>
                <path d="M3.5023,126.3186 C3.5023,104.5146 16.8143,85.8186 35.7533,77.9166 L76.3333,78.0136 C95.1493,85.9726 108.3523,104.6036 108.3523,126.3186" id="Stroke-15" stroke="#313B44" stroke-width="4" stroke-linejoin="round"></path>
                <path d="M0.4144,51.5227 C9.9474,61.0557 23.1014,64.7597 35.4484,62.6347 L76.4064,62.6347 C88.7534,64.7597 101.9074,61.0557 111.4394,51.5227" id="Stroke-17" stroke="#313B44" stroke-width="4" stroke-linejoin="round"></path>
            </g>
        </g>
    </g>
</svg>