<?xml version="1.0" encoding="UTF-8"?>
<svg width="113px" height="122px" viewBox="0 0 113 122" version="1.1" xmlns="http://www.w3.org/2000/svg" xmlns:xlink="http://www.w3.org/1999/xlink">
    <!-- Generator: Sketch 53.2 (72643) - https://sketchapp.com -->
    <title>icon4</title>
    <desc>Created with Sketch.</desc>
    <defs>
        <polygon id="path-1" points="0 121.4 112.595 121.4 112.595 0 0 0"></polygon>
    </defs>
    <g id="Drop-Downs" stroke="none" stroke-width="1" fill="none" fill-rule="evenodd">
        <g id="LandingPage_1279_C" transform="translate(-321.000000, -12912.000000)">
            <g id="icon4" transform="translate(321.000000, 12912.000000)">
                <path d="M110.7975,109 C110.7975,114.5 106.2975,119 100.7975,119 L21.7975,119 C16.2975,119 11.7975,114.5 11.7975,109 L11.7975,12 C11.7975,6.5 16.2975,2 21.7975,2 L100.7975,2 C106.2975,2 110.7975,6.5 110.7975,12 L110.7975,109 Z" id="Fill-1" fill="#EBECE8"></path>
                <path d="M110.5954,109.4004 C110.5954,114.9004 106.0954,119.4004 100.5954,119.4004 L12.0004,119.4004 C6.5004,119.4004 2.0004,114.9004 2.0004,109.4004 L2.0004,12.0004 C2.0004,6.5004 6.5004,2.0004 12.0004,2.0004 L100.5954,2.0004 C106.0954,2.0004 110.5954,6.5004 110.5954,12.0004 L110.5954,109.4004 Z" id="Stroke-3" stroke="#313B44" stroke-width="4" stroke-linejoin="round"></path>
                <polygon id="Fill-5" fill="#FFFFFF" points="19.1207 14.2295 19.1207 24.9915 14.2287 24.9915 14.2287 55.3195 19.1207 55.3195 19.1207 66.0815 14.2287 66.0815 14.2287 96.4095 19.1207 96.4095 19.1207 107.1705 97.8767 107.1705 97.8767 14.2295"></polygon>
                <mask id="mask-2" fill="white">
                    <use xlink:href="#path-1"></use>
                </mask>
                <g id="Clip-8"></g>
                <polygon id="Fill-7" fill="#EBECE8" mask="url(#mask-2)" points="26.798 107 97.798 107 97.798 14.229 26.798 14.229"></polygon>
                <path d="M37.7091,40.1553 L37.7091,81.2453" id="Stroke-9" stroke="#313B44" stroke-width="4" stroke-linejoin="round" mask="url(#mask-2)"></path>
                <path d="M84.6696,60.7002 C84.6696,67.9942 78.7556,73.9072 71.4616,73.9072 C64.1676,73.9072 58.2536,67.9942 58.2536,60.7002 C58.2536,53.4052 64.1676,47.4922 71.4616,47.4922 C78.7556,47.4922 84.6696,53.4052 84.6696,60.7002" id="Fill-10" fill="#FFFFFF" mask="url(#mask-2)"></path>
                <path d="M92.6696,60.7002 C92.6696,67.9942 86.7556,73.9072 79.4616,73.9072 C72.1676,73.9072 66.2546,67.9942 66.2546,60.7002 C66.2546,53.4052 72.1676,47.4922 79.4616,47.4922 C86.7556,47.4922 92.6696,53.4052 92.6696,60.7002" id="Fill-11" fill="#EBECE8" mask="url(#mask-2)"></path>
                <path d="M84.6696,60.7002 C84.6696,67.9942 78.7556,73.9072 71.4616,73.9072 C64.1676,73.9072 58.2536,67.9942 58.2536,60.7002 C58.2536,53.4052 64.1676,47.4922 71.4616,47.4922 C78.7556,47.4922 84.6696,53.4052 84.6696,60.7002 Z" id="Stroke-12" stroke="#313B44" stroke-width="4" stroke-linejoin="round" mask="url(#mask-2)"></path>
                <polygon id="Stroke-13" stroke="#313B44" stroke-width="4" stroke-linejoin="round" mask="url(#mask-2)" points="19.1207 14.2295 19.1207 24.9915 14.2287 24.9915 14.2287 55.3195 19.1207 55.3195 19.1207 66.0815 14.2287 66.0815 14.2287 96.4095 19.1207 96.4095 19.1207 107.1705 97.8767 107.1705 97.8767 14.2295"></polygon>
            </g>
        </g>
    </g>
</svg>