<?xml version="1.0" encoding="UTF-8"?>
<svg width="77px" height="20px" viewBox="0 0 77 20" version="1.1" xmlns="http://www.w3.org/2000/svg" xmlns:xlink="http://www.w3.org/1999/xlink">
    <!-- Generator: Sketch 53.2 (72643) - https://sketchapp.com -->
    <title>keevo-logo2</title>
    <desc>Created with Sketch.</desc>
    <defs>
        <polygon id="path-1" points="0.0236842105 0.00536956522 4.79605263 0.00536956522 4.79605263 7.53308696 8.79276316 7.53308696 14.7880263 18.8248696 9.19263158 18.8248696 4.79605263 10.5441739 4.79605263 18.8248696 0.0236842105 18.8248696"></polygon>
        <polygon id="path-3" points="13.7615882 11.2971522 11.3453529 18.8248696 6.342 18.8248696 0.0885294118 0.00536956522 5.09147059 0.00536956522 8.84388235 11.2971522"></polygon>
        <polygon id="path-5" points="2.77473684 0.00547368421 7.96 0.00547368421 5.41978947 7.67915789 0.238315789 7.67915789"></polygon>
        <polygon id="path-7" points="0.31815 3.65 3.2796 0.0052 8.7471 0.0052 5.78565 3.65"></polygon>
        <path d="M10.9213077,11.2971522 L4.92419231,11.2971522 L4.92419231,15.0608043 L10.9213077,15.0608043 L10.9213077,18.8248696 L0.211961538,18.8248696 L0.211961538,7.53308696 L10.9213077,7.53308696 L10.9213077,11.2971522 Z M0.211961538,3.76943478 L0.211961538,0.00536956522 L10.9213077,0.00536956522 L10.9213077,3.76943478 L0.211961538,3.76943478 Z" id="path-9"></path>
        <path d="M0.352,7.53308696 L10.6647037,7.53308696 L10.6647037,11.2971522 L4.8897037,11.2971522 L4.8897037,15.0608043 L10.6647037,15.0608043 L10.6647037,18.8248696 L0.352,18.8248696 L0.352,7.53308696 Z M0.352,3.76943478 L0.352,0.00536956522 L10.6647037,0.00536956522 L10.6647037,3.76943478 L0.352,3.76943478 Z" id="path-11"></path>
        <path d="M0.07875,11.8129167 L5.34541667,11.8129167 C6.08416667,13.54875 7.80541667,14.7658333 9.81125,14.7658333 C12.4908333,14.7658333 14.6629167,12.59375 14.6629167,9.91416667 C14.6629167,7.23458333 12.4908333,5.0625 9.81125,5.0625 C7.80541667,5.0625 6.08416667,6.27958333 5.34541667,8.01583333 L0.07875,8.01583333 C0.964583333,3.44833333 4.985,0 9.81125,0 C15.2866667,0 19.7258333,4.43875 19.7258333,9.91416667 C19.7258333,15.3895833 15.2866667,19.82875 9.81125,19.82875 C4.985,19.82875 0.964583333,16.38 0.07875,11.8129167 Z" id="path-13"></path>
    </defs>
    <g id="Drop-Downs" stroke="none" stroke-width="1" fill="none" fill-rule="evenodd">
        <g id="LandingPage_1279_C" transform="translate(-115.000000, -16793.000000)">
            <g id="Footer" transform="translate(0.000000, 16692.000000)">
                <g id="keevo-logo2" transform="translate(115.000000, 101.000000)">
                    <g id="Group-3" transform="translate(0.000000, 1.000000)">
                        <mask id="mask-2" fill="white">
                            <use xlink:href="#path-1"></use>
                        </mask>
                        <g id="Clip-2"></g>
                        <polygon id="Fill-1" fill="#FFFFFF" mask="url(#mask-2)" points="0.0236842105 18.8430435 14.8026316 18.8430435 14.8026316 -0.0413043478 0.0236842105 -0.0413043478"></polygon>
                    </g>
                    <g id="Group-6" transform="translate(39.000000, 1.000000)">
                        <mask id="mask-4" fill="white">
                            <use xlink:href="#path-3"></use>
                        </mask>
                        <g id="Clip-5"></g>
                        <polygon id="Fill-4" fill="#FFFFFF" mask="url(#mask-4)" points="0.0411764706 18.8430435 13.7776471 18.8430435 13.7776471 -0.0413043478 0.0411764706 -0.0413043478"></polygon>
                    </g>
                    <g id="Group-9" transform="translate(49.000000, 1.000000)">
                        <mask id="mask-6" fill="white">
                            <use xlink:href="#path-5"></use>
                        </mask>
                        <g id="Clip-8"></g>
                        <polygon id="Fill-7" fill="#FFFFFF" mask="url(#mask-6)" points="0.193684211 7.68842105 7.97473684 7.68842105 7.97473684 -0.0421052632 0.193684211 -0.0421052632"></polygon>
                    </g>
                    <g id="Group-12" transform="translate(6.000000, 1.000000)">
                        <mask id="mask-8" fill="white">
                            <use xlink:href="#path-7"></use>
                        </mask>
                        <g id="Clip-11"></g>
                        <polygon id="Fill-10" fill="#FFFFFF" mask="url(#mask-8)" points="0.279 3.656 8.757 3.656 8.757 -0.04 0.279 -0.04"></polygon>
                    </g>
                    <g id="Group-15" transform="translate(16.000000, 1.000000)">
                        <mask id="mask-10" fill="white">
                            <use xlink:href="#path-9"></use>
                        </mask>
                        <g id="Clip-14"></g>
                        <polygon id="Fill-13" fill="#FFFFFF" mask="url(#mask-10)" points="0.211538462 18.8430435 10.9238462 18.8430435 10.9238462 -0.0413043478 0.211538462 -0.0413043478"></polygon>
                    </g>
                    <g id="Group-18" transform="translate(28.000000, 1.000000)">
                        <mask id="mask-12" fill="white">
                            <use xlink:href="#path-11"></use>
                        </mask>
                        <g id="Clip-17"></g>
                        <polygon id="Fill-16" fill="#FFFFFF" mask="url(#mask-12)" points="0.317777778 18.8430435 10.6822222 18.8430435 10.6822222 -0.0413043478 0.317777778 -0.0413043478"></polygon>
                    </g>
                    <g id="Group-21" transform="translate(57.000000, 0.000000)">
                        <mask id="mask-14" fill="white">
                            <use xlink:href="#path-13"></use>
                        </mask>
                        <g id="Clip-20"></g>
                        <polygon id="Fill-19" fill="#FFFFFF" mask="url(#mask-14)" points="0.0583333333 19.875 19.7583333 19.875 19.7583333 -0.025 0.0583333333 -0.025"></polygon>
                    </g>
                </g>
            </g>
        </g>
    </g>
</svg>